<svg width="349" height="145" viewBox="0 0 349 145" fill="none" xmlns="http://www.w3.org/2000/svg">
<path d="M165.156 91.4219H138.156V109.703H169.844V121H124.094V52.75H169.75V64.1406H138.156V80.4062H165.156V91.4219ZM203.547 97.2344H177.156V86.3125H203.547V97.2344ZM264.438 104.078L279.906 52.75H295.562L271.797 121H257.125L233.453 52.75H249.062L264.438 104.078ZM296.875 95.1719C296.875 90.1406 297.844 85.6562 299.781 81.7188C301.719 77.7812 304.5 74.7344 308.125 72.5781C311.781 70.4219 316.016 69.3438 320.828 69.3438C327.672 69.3438 333.25 71.4375 337.562 75.625C341.906 79.8125 344.328 85.5 344.828 92.6875L344.922 96.1562C344.922 103.938 342.75 110.188 338.406 114.906C334.062 119.594 328.234 121.938 320.922 121.938C313.609 121.938 307.766 119.594 303.391 114.906C299.047 110.219 296.875 103.844 296.875 95.7812V95.1719ZM310.422 96.1562C310.422 100.969 311.328 104.656 313.141 107.219C314.953 109.75 317.547 111.016 320.922 111.016C324.203 111.016 326.766 109.766 328.609 107.266C330.453 104.734 331.375 100.703 331.375 95.1719C331.375 90.4531 330.453 86.7969 328.609 84.2031C326.766 81.6094 324.172 80.3125 320.828 80.3125C317.516 80.3125 314.953 81.6094 313.141 84.2031C311.328 86.7656 310.422 90.75 310.422 96.1562Z" fill="#112A46"/>
<path d="M81.2464 17.9383L81.2465 17.9384L104.462 41.1536L104.462 41.1536C106.919 43.6098 108.299 46.9413 108.3 50.4153V108.8C108.3 112.274 106.92 115.606 104.463 118.063C102.006 120.52 98.6744 121.9 95.2 121.9H40.8C37.3257 121.9 33.9936 120.52 31.5369 118.063C29.0802 115.606 27.7 112.274 27.7 108.8V27.2C27.7 23.7257 29.0802 20.3936 31.5369 17.9369C33.9936 15.4802 37.3257 14.1 40.8 14.1H71.9847C71.9847 14.1 71.9848 14.1 71.9848 14.1C75.4588 14.1008 78.7903 15.4814 81.2464 17.9383Z" fill="white" stroke="#FB8500"/>
<rect x="52.8889" y="37.7778" width="3.77777" height="60.4444" fill="#FB8500"/>
<rect x="60.4445" y="64.2222" width="3.77777" height="34" fill="#FB8500"/>
<rect x="68" y="37.7778" width="3.77778" height="60.4444" fill="#FB8500"/>
<rect x="75.5555" y="64.2222" width="3.77777" height="34" fill="#FB8500"/>
<rect width="41.5556" height="3.77778" transform="matrix(1 0 0 -1 45.3333 105.778)" fill="#FB8500"/>
</svg>
