<svg width="36" height="36" viewBox="0 0 36 36" fill="none" xmlns="http://www.w3.org/2000/svg">
<path d="M21.2464 5.00831L21.2465 5.00836L27.3917 11.1536L27.3917 11.1536C27.9731 11.7348 28.2998 12.5231 28.3 13.3452C28.3 13.3452 28.3 13.3453 28.3 13.3453V28.8C28.3 29.6222 27.9734 30.4107 27.392 30.992C26.8107 31.5734 26.0222 31.9 25.2 31.9H10.8C9.97784 31.9 9.18934 31.5734 8.60798 30.992C8.02662 30.4107 7.70001 29.6222 7.70001 28.8V7.20001C7.70001 6.37783 8.02662 5.58934 8.60798 5.00797C9.18934 4.42661 9.97784 4.10001 10.8 4.10001H19.0547C19.0547 4.10001 19.0548 4.10001 19.0548 4.10001C19.8769 4.10021 20.6652 4.42693 21.2464 5.00831Z" fill="white" stroke="#FB8500"/>
<rect x="14" y="10" width="1" height="16" fill="#FB8500"/>
<rect x="16" y="17" width="1" height="9" fill="#FB8500"/>
<rect x="18" y="10" width="1" height="16" fill="#FB8500"/>
<rect x="20" y="17" width="1" height="9" fill="#FB8500"/>
<rect width="11" height="1" transform="matrix(1 0 0 -1 12 28)" fill="#FB8500"/>
</svg>
