<svg width="123" height="42" viewBox="0 0 123 42" fill="none" xmlns="http://www.w3.org/2000/svg">
<path d="M53.6836 21.9082H43.5586V28.7637H55.4414V33H38.2852V7.40625H55.4062V11.6777H43.5586V17.7773H53.6836V21.9082ZM68.0801 24.0879H58.1836V19.9922H68.0801V24.0879ZM90.9141 26.6543L96.7148 7.40625H102.586L93.6738 33H88.1719L79.2949 7.40625H85.1484L90.9141 26.6543ZM103.078 23.3145C103.078 21.4277 103.441 19.7461 104.168 18.2695C104.895 16.793 105.938 15.6504 107.297 14.8418C108.668 14.0332 110.256 13.6289 112.061 13.6289C114.627 13.6289 116.719 14.4141 118.336 15.9844C119.965 17.5547 120.873 19.6875 121.061 22.3828L121.096 23.6836C121.096 26.6016 120.281 28.9453 118.652 30.7148C117.023 32.4727 114.838 33.3516 112.096 33.3516C109.354 33.3516 107.162 32.4727 105.521 30.7148C103.893 28.957 103.078 26.5664 103.078 23.543V23.3145ZM108.158 23.6836C108.158 25.4883 108.498 26.8711 109.178 27.832C109.857 28.7812 110.83 29.2559 112.096 29.2559C113.326 29.2559 114.287 28.7871 114.979 27.8496C115.67 26.9004 116.016 25.3887 116.016 23.3145C116.016 21.5449 115.67 20.1738 114.979 19.2012C114.287 18.2285 113.314 17.7422 112.061 17.7422C110.818 17.7422 109.857 18.2285 109.178 19.2012C108.498 20.1621 108.158 21.6562 108.158 23.6836Z" fill="#112A46"/>
<path d="M21.2464 6.00831L21.2465 6.00836L27.3917 12.1536L27.3917 12.1536C27.9731 12.7348 28.2998 13.5231 28.3 14.3452C28.3 14.3452 28.3 14.3453 28.3 14.3453V29.8C28.3 30.6222 27.9734 31.4107 27.392 31.992C26.8107 32.5734 26.0222 32.9 25.2 32.9H10.8C9.97784 32.9 9.18934 32.5734 8.60798 31.992C8.02662 31.4107 7.70001 30.6222 7.70001 29.8V8.20001C7.70001 7.37783 8.02662 6.58934 8.60798 6.00797C9.18934 5.42661 9.97784 5.10001 10.8 5.10001H19.0547C19.0547 5.10001 19.0548 5.10001 19.0548 5.10001C19.8769 5.10021 20.6652 5.42693 21.2464 6.00831Z" fill="white" stroke="#FB8500"/>
<rect x="14" y="11" width="1" height="16" fill="#FB8500"/>
<rect x="16" y="18" width="1" height="9" fill="#FB8500"/>
<rect x="18" y="11" width="1" height="16" fill="#FB8500"/>
<rect x="20" y="18" width="1" height="9" fill="#FB8500"/>
<rect width="11" height="1" transform="matrix(1 0 0 -1 12 29)" fill="#FB8500"/>
</svg>
